<svg width="51" height="51" viewBox="0 0 51 51" fill="none" xmlns="http://www.w3.org/2000/svg">
<path d="M44.4125 4.25H6.5875C5.96756 4.25 5.373 4.49627 4.93464 4.93464C4.49627 5.373 4.25 5.96756 4.25 6.5875V44.4125C4.25 45.0324 4.49627 45.627 4.93464 46.0654C5.373 46.5037 5.96756 46.75 6.5875 46.75H26.945V30.2812H21.42V23.9062H26.945V19.125C26.8306 18.0025 26.9631 16.8685 27.3333 15.8026C27.7035 14.7368 28.3024 13.7648 29.088 12.9549C29.8736 12.145 30.8269 11.5167 31.881 11.1143C32.9351 10.7118 34.0645 10.5448 35.19 10.625C36.844 10.6136 38.4972 10.6987 40.1413 10.88V16.6175H36.7625C34.085 16.6175 33.575 17.8925 33.575 19.7413V23.8425H39.95L39.1213 30.2175H33.575V46.75H44.4125C44.7195 46.75 45.0234 46.6895 45.307 46.5721C45.5906 46.4546 45.8483 46.2824 46.0654 46.0654C46.2824 45.8483 46.4546 45.5906 46.5721 45.307C46.6895 45.0234 46.75 44.7195 46.75 44.4125V6.5875C46.75 6.28053 46.6895 5.97658 46.5721 5.69298C46.4546 5.40938 46.2824 5.1517 46.0654 4.93464C45.8483 4.71758 45.5906 4.5454 45.307 4.42793C45.0234 4.31046 44.7195 4.25 44.4125 4.25Z" fill="white"/>
</svg>
