<svg width="59" height="59" viewBox="0 0 59 59" fill="none" xmlns="http://www.w3.org/2000/svg">
<path d="M29.5 4.91675C26.2717 4.91675 23.075 5.55261 20.0924 6.78804C17.1098 8.02347 14.3997 9.83427 12.117 12.117C7.50669 16.7273 4.91667 22.9802 4.91667 29.5001C4.91667 40.3659 11.9721 49.5847 21.7317 52.8543C22.9608 53.0509 23.3542 52.2888 23.3542 51.6251V47.4705C16.5446 48.9455 15.0942 44.1763 15.0942 44.1763C13.9633 41.3247 12.3654 40.5626 12.3654 40.5626C10.1283 39.0384 12.5375 39.0876 12.5375 39.0876C14.9958 39.2597 16.2988 41.6197 16.2988 41.6197C18.4375 45.3563 22.0513 44.2501 23.4525 43.6601C23.6738 42.0622 24.3129 40.9805 25.0013 40.3659C19.5438 39.7513 13.8158 37.6372 13.8158 28.2709C13.8158 25.5422 14.75 23.3542 16.3479 21.6088C16.1021 20.9942 15.2417 18.4376 16.5938 15.1188C16.5938 15.1188 18.6588 14.4551 23.3542 17.6263C25.2963 17.0855 27.4104 16.8151 29.5 16.8151C31.5896 16.8151 33.7038 17.0855 35.6458 17.6263C40.3413 14.4551 42.4063 15.1188 42.4063 15.1188C43.7583 18.4376 42.8979 20.9942 42.6521 21.6088C44.25 23.3542 45.1842 25.5422 45.1842 28.2709C45.1842 37.6618 39.4317 39.7267 33.9496 40.3413C34.8346 41.1034 35.6458 42.603 35.6458 44.8893V51.6251C35.6458 52.2888 36.0392 53.0755 37.2929 52.8543C47.0525 49.5601 54.0833 40.3659 54.0833 29.5001C54.0833 26.2718 53.4475 23.075 52.212 20.0924C50.9766 17.1099 49.1658 14.3998 46.883 12.117C44.6003 9.83427 41.8902 8.02347 38.9076 6.78804C35.9251 5.55261 32.7283 4.91675 29.5 4.91675Z" fill="white"/>
</svg>
